<svg width="117" height="50" viewBox="0 0 117 50" fill="none" xmlns="http://www.w3.org/2000/svg">
<rect width="108" height="50" rx="25" fill="#4C5FD5"/>
<path d="M23.7216 27.9091V27.8239C23.7311 26.9195 23.8258 26.1998 24.0057 25.6648C24.1856 25.1297 24.4413 24.6965 24.7727 24.3651C25.1042 24.0336 25.5019 23.7282 25.9659 23.4489C26.2453 23.2784 26.4962 23.0772 26.7188 22.8452C26.9413 22.6084 27.1165 22.3362 27.2443 22.0284C27.3769 21.7206 27.4432 21.3797 27.4432 21.0057C27.4432 20.5417 27.3343 20.1392 27.1165 19.7983C26.8987 19.4574 26.6075 19.1946 26.2429 19.0099C25.8783 18.8253 25.4735 18.733 25.0284 18.733C24.6402 18.733 24.2661 18.8134 23.9062 18.9744C23.5464 19.1354 23.2457 19.3887 23.0043 19.7344C22.7628 20.08 22.6231 20.5322 22.5852 21.0909H20.7955C20.8333 20.286 21.0417 19.5971 21.4205 19.0241C21.804 18.4512 22.3082 18.0133 22.9332 17.7102C23.563 17.4072 24.2614 17.2557 25.0284 17.2557C25.8617 17.2557 26.5862 17.4214 27.2017 17.7528C27.822 18.0843 28.3002 18.5388 28.6364 19.1165C28.9773 19.6941 29.1477 20.3523 29.1477 21.0909C29.1477 21.6117 29.0672 22.0829 28.9062 22.5043C28.75 22.9257 28.5227 23.3021 28.2244 23.6335C27.9309 23.965 27.5758 24.2585 27.1591 24.5142C26.7424 24.7746 26.4086 25.0492 26.1577 25.3381C25.9067 25.6222 25.7244 25.9607 25.6108 26.3537C25.4972 26.7467 25.4356 27.2367 25.4261 27.8239V27.9091H23.7216ZM24.6307 32.1136C24.2803 32.1136 23.9796 31.9882 23.7287 31.7372C23.4777 31.4863 23.3523 31.1856 23.3523 30.8352C23.3523 30.4848 23.4777 30.1842 23.7287 29.9332C23.9796 29.6823 24.2803 29.5568 24.6307 29.5568C24.9811 29.5568 25.2817 29.6823 25.5327 29.9332C25.7836 30.1842 25.9091 30.4848 25.9091 30.8352C25.9091 31.0672 25.8499 31.2803 25.7315 31.4744C25.6179 31.6686 25.464 31.8248 25.2699 31.9432C25.0805 32.0568 24.8674 32.1136 24.6307 32.1136Z" fill="white"/>
<circle cx="25.5" cy="24.5" r="11.5" stroke="white" stroke-width="2"/>
<path d="M44.2642 32V17.4545H47.3395V23.456H53.5824V17.4545H56.6506V32H53.5824V25.9915H47.3395V32H44.2642ZM63.9009 32.2131C62.7787 32.2131 61.8128 31.9858 61.0031 31.5312C60.1982 31.072 59.5779 30.4233 59.1423 29.5852C58.7067 28.7424 58.4889 27.7457 58.4889 26.5952C58.4889 25.473 58.7067 24.4882 59.1423 23.6406C59.5779 22.7931 60.1911 22.1326 60.9818 21.6591C61.7773 21.1856 62.71 20.9489 63.7801 20.9489C64.4998 20.9489 65.1698 21.0649 65.7901 21.2969C66.4151 21.5241 66.9596 21.8674 67.4236 22.3267C67.8923 22.786 68.2569 23.3636 68.5173 24.0597C68.7777 24.7509 68.908 25.5606 68.908 26.4886V27.3196H59.6963V25.4446H66.0599C66.0599 25.009 65.9652 24.6231 65.7759 24.2869C65.5865 23.9508 65.3237 23.688 64.9875 23.4986C64.6561 23.3045 64.2702 23.2074 63.8298 23.2074C63.3705 23.2074 62.9634 23.3139 62.6082 23.527C62.2579 23.7353 61.9832 24.017 61.7844 24.3722C61.5855 24.7225 61.4837 25.1132 61.479 25.544V27.3267C61.479 27.8665 61.5784 28.3329 61.7773 28.7259C61.9809 29.1188 62.2673 29.4219 62.6366 29.6349C63.006 29.848 63.4439 29.9545 63.9506 29.9545C64.2867 29.9545 64.5945 29.9072 64.8739 29.8125C65.1532 29.7178 65.3923 29.5758 65.5912 29.3864C65.7901 29.197 65.9416 28.965 66.0457 28.6903L68.844 28.875C68.702 29.5473 68.4108 30.1345 67.9705 30.6364C67.5348 31.1335 66.9714 31.5218 66.2801 31.8011C65.5936 32.0758 64.8005 32.2131 63.9009 32.2131ZM73.708 17.4545V32H70.6824V17.4545H73.708ZM75.9316 36.0909V21.0909H78.9146V22.9233H79.0495C79.1821 22.6297 79.3738 22.3314 79.6248 22.0284C79.8805 21.7206 80.2119 21.465 80.6191 21.2614C81.031 21.053 81.5424 20.9489 82.1532 20.9489C82.9487 20.9489 83.6826 21.1572 84.3549 21.5739C85.0272 21.9858 85.5647 22.6084 85.9671 23.4418C86.3696 24.2704 86.5708 25.3097 86.5708 26.5597C86.5708 27.7765 86.3743 28.804 85.9813 29.642C85.5931 30.4754 85.0628 31.1075 84.3904 31.5384C83.7228 31.9645 82.9747 32.1776 82.1461 32.1776C81.559 32.1776 81.0594 32.0805 80.6475 31.8864C80.2403 31.6922 79.9065 31.4484 79.6461 31.1548C79.3857 30.8565 79.1868 30.5559 79.0495 30.2528H78.9572V36.0909H75.9316ZM78.8933 26.5455C78.8933 27.1941 78.9832 27.7599 79.1631 28.2429C79.3431 28.7259 79.6035 29.1023 79.9444 29.3722C80.2853 29.6373 80.6996 29.7699 81.1873 29.7699C81.6797 29.7699 82.0964 29.6349 82.4373 29.3651C82.7782 29.0904 83.0362 28.7116 83.2114 28.2287C83.3914 27.741 83.4813 27.1799 83.4813 26.5455C83.4813 25.9157 83.3937 25.3617 83.2185 24.8835C83.0433 24.4053 82.7853 24.0312 82.4444 23.7614C82.1035 23.4915 81.6844 23.3565 81.1873 23.3565C80.6949 23.3565 80.2782 23.4867 79.9373 23.7472C79.6011 24.0076 79.3431 24.3769 79.1631 24.8551C78.9832 25.3333 78.8933 25.8968 78.8933 26.5455Z" fill="white"/>
</svg>
